# xmcd
#
# Track frame offsets: 
#        150
#        24076
#        39330
#        54689
#        73883
#        89228
#        106005
#        126550
#        151360
#        178241
#        202515
#        223086
#        263326
#        286474
#        301825
#
# Disc length: 4478 seconds
#
# Revision: 0
# Processed by: cddbd v1.5.2PL0 Copyright (c) Steve Scherf et al.
# Submitted via: ExactAudioCopy v0.95b4
#
DISCID=d2117c0f
DTITLE=Jakub Skrdla - CD 2 Jak jsem cestoval s Hop Tropem po australii
DYEAR=2008
DGENRE=Comedy
TTITLE0=01 Past na Japonce
TTITLE1=02 Vyplaveny stan
TTITLE2=03 Cizi jazyk
TTITLE3=04 Samson kucharem
TTITLE4=05 Vylet do pouste
TTITLE5=06 Morsky park
TTITLE6=07 Navrat ztracenych dusi
TTITLE7=08 Petruv pevecky talent
TTITLE8=09 Hura za zvyratky aneb bacha na krokodyla
TTITLE9=10 Navrat do Sydney
TTITLE10=11 Hledani autopujcovny
TTITLE11=12 Prohlidka mesta
TTITLE12=13 Nakupni horecka
TTITLE13=14 Klokani historka
TTITLE14=15 Odlet domu
EXTD=
EXTT0=
EXTT1=
EXTT2=
EXTT3=
EXTT4=
EXTT5=
EXTT6=
EXTT7=
EXTT8=
EXTT9=
EXTT10=
EXTT11=
EXTT12=
EXTT13=
EXTT14=
PLAYORDER=
